<?xml version="1.0" encoding="utf-8"?>
<!-- Generator: Adobe Illustrator 27.8.0, SVG Export Plug-In . SVG Version: 6.00 Build 0)  -->
<svg version="1.1" id="Capa_1" xmlns="http://www.w3.org/2000/svg" xmlns:xlink="http://www.w3.org/1999/xlink" x="0px" y="0px"
	 viewBox="0 0 190 47" enable-background="new 0 0 190 47" xml:space="preserve">
<g>
	<circle fill="#FFFFFF" stroke="#F09100" stroke-width="3" stroke-miterlimit="10" cx="23" cy="24.49" r="20.5"/>
	<path fill="#256F7E" d="M34,21.69v11.6c0,0.53-0.43,0.95-0.95,0.95h-19.1c-0.53,0-0.95-0.43-0.95-0.95v-11.6
		c0-0.53,0.43-0.95,0.95-0.95h1.1c0.53,0,0.95,0.43,0.95,0.95v8.6c0,0.53,0.43,0.95,0.95,0.95h4.1c0.53,0,0.95-0.43,0.95-0.95v-2.6
		c0-0.53,0.43-0.95,0.95-0.95h1.1c0.53,0,0.95,0.43,0.95,0.95v2.6c0,0.53,0.43,0.95,0.95,0.95h4.1c0.53,0,0.95-0.43,0.95-0.95v-8.6
		c0-0.53,0.43-0.95,0.95-0.95h1.1C33.57,20.74,34,21.17,34,21.69z"/>
	<path fill="#F09100" d="M33.81,37.24c-0.01,0-0.03,0-0.04,0c-0.88-0.01-1.26-1.08-0.61-1.67c5.59-5.08,6.49-14.43,1.64-20.36
		c-0.36-0.44-1.02-0.5-1.43-0.09l-9.2,9.2c-0.37,0.37-0.98,0.37-1.35,0L13,14.49l-0.6-0.6c-0.28,0.27-0.54,0.55-0.79,0.85H11.5v0.13
		c-5.24,5.94-4.33,15.53,1.35,20.71c0.65,0.59,0.27,1.66-0.61,1.66h-0.47C11.68,37.17,11.49,37,11.49,37
		c-7.46-6.51-7.15-19.18,0.42-25.41c0.37-0.31,0.92-0.26,1.26,0.08c1.9,1.9,7.61,7.61,9.65,9.65c0.37,0.37,0.97,0.37,1.34,0
		c1.91-1.91,7.32-7.32,9.17-9.17c0.37-0.37,0.96-0.37,1.33-0.02c0.29,0.27,0.56,0.56,0.83,0.85v0.01c2.56,3.4,4.3,7.14,4.5,11.5
		c0.02,4.41-1.69,8.53-5.48,12.45C34.34,37.13,34.08,37.24,33.81,37.24z"/>
</g>
<g>
	<path fill="#F09100" d="M64.64,15.8H54.2v7.19h4.5c0.4,0,0.74,0.15,1.04,0.44s0.44,0.64,0.44,1.04c0,0.42-0.14,0.78-0.43,1.07
		s-0.64,0.44-1.05,0.44h-4.5v7.24h10.48c0.4,0,0.74,0.14,1.04,0.43s0.44,0.64,0.44,1.05S66,35.45,65.7,35.74s-0.65,0.43-1.06,0.43
		H51.24V12.81h13.39c0.41,0,0.76,0.15,1.06,0.45s0.45,0.65,0.45,1.06c0,0.4-0.15,0.74-0.45,1.04S65.05,15.8,64.64,15.8z"/>
	<path fill="#F09100" d="M82.2,27.99v0.9c0,0.29-0.1,0.53-0.3,0.74c-0.2,0.21-0.44,0.31-0.73,0.31H72.9c-0.29,0-0.53-0.1-0.73-0.31
		c-0.2-0.21-0.3-0.45-0.3-0.74v-0.9c0-0.29,0.1-0.53,0.3-0.73c0.2-0.2,0.44-0.3,0.73-0.3h8.28c0.26,0,0.5,0.1,0.71,0.29
		C82.1,27.44,82.2,27.69,82.2,27.99z"/>
	<path fill="#F09100" d="M91.1,26.32v-0.53l-2.12-3.03v12.38c0,0.29-0.1,0.53-0.3,0.73c-0.2,0.2-0.44,0.3-0.73,0.3
		c-0.29,0-0.53-0.1-0.73-0.31c-0.2-0.2-0.3-0.44-0.3-0.72v-15.2h2.65l2.52,3.68l2.6-3.68h2.6v15.2c0,0.29-0.1,0.53-0.31,0.73
		c-0.21,0.2-0.45,0.3-0.74,0.3c-0.28,0-0.52-0.1-0.72-0.31c-0.2-0.2-0.31-0.44-0.31-0.72V22.82l-2.08,2.93v0.57
		c0,0.28-0.1,0.52-0.31,0.72c-0.2,0.2-0.44,0.31-0.72,0.31c-0.29,0-0.53-0.1-0.73-0.31C91.2,26.84,91.1,26.6,91.1,26.32z"/>
	<path fill="#F09100" d="M112.4,28.25v2.48c0,0.28-0.1,0.52-0.31,0.72c-0.2,0.2-0.44,0.3-0.72,0.3h-7.25v0.6
		c0,0.35,0.15,0.65,0.45,0.89l0.6,0.5c0.33,0.25,0.63,0.38,0.93,0.38h5.27c0.28,0,0.52,0.1,0.72,0.3c0.2,0.2,0.31,0.44,0.31,0.73
		c0,0.28-0.1,0.52-0.31,0.72c-0.21,0.2-0.45,0.31-0.71,0.31h-5.41c-0.36,0-0.73-0.08-1.13-0.23c-0.4-0.15-0.69-0.31-0.87-0.47
		l-0.92-0.8c-0.29-0.23-0.52-0.54-0.71-0.95c-0.19-0.41-0.29-0.78-0.29-1.12v-4.7c0-0.27,0.1-0.63,0.31-1.09
		c0.21-0.46,0.47-0.81,0.79-1.06l0.85-0.67c0.56-0.46,1.18-0.68,1.87-0.68h2.88c0.72,0,1.41,0.3,2.05,0.9l0.77,0.73
		C112.13,26.52,112.4,27.26,112.4,28.25z M104.15,28.09v1.59h6.23v-1.43c0-0.38-0.12-0.67-0.35-0.88l-0.6-0.52
		c-0.31-0.25-0.59-0.38-0.83-0.38h-2.58c-0.32,0-0.61,0.11-0.87,0.33l-0.6,0.5C104.29,27.5,104.15,27.76,104.15,28.09z"/>
	<path fill="#F09100" d="M117.18,35.14v-9.73c0-0.28,0.1-0.53,0.3-0.74c0.2-0.21,0.44-0.31,0.73-0.31c0.28,0,0.53,0.1,0.73,0.31
		c0.2,0.2,0.3,0.45,0.3,0.74v1.28l1.67-1.43c0.69-0.59,1.37-0.88,2.03-0.88h1.5c0.85,0,1.57,0.3,2.17,0.9c0.6,0.6,0.9,1.33,0.9,2.17
		v0.55c0,0.29-0.1,0.54-0.3,0.75c-0.2,0.2-0.44,0.3-0.73,0.3c-0.29,0-0.53-0.1-0.73-0.3c-0.2-0.2-0.3-0.44-0.3-0.73v-0.57
		c0-0.28-0.1-0.53-0.3-0.73c-0.2-0.2-0.44-0.3-0.73-0.3h-1.33c-0.29,0-0.6,0.15-0.95,0.45l-2.92,2.53v5.73
		c0,0.29-0.1,0.53-0.31,0.73c-0.2,0.2-0.44,0.3-0.72,0.3c-0.29,0-0.53-0.1-0.73-0.3C117.28,35.67,117.18,35.43,117.18,35.14z"/>
	<path fill="#F09100" d="M141.6,36.17h-4.38c-0.77,0-1.43-0.23-1.98-0.7l-1.99-1.73c-0.63-0.53-0.95-1.25-0.95-2.15v-2.67
		c-0.03-0.87,0.33-1.63,1.07-2.27l1.79-1.55c0.58-0.47,1.2-0.71,1.86-0.71h4.6c0.28,0,0.53,0.1,0.73,0.3c0.2,0.2,0.3,0.44,0.3,0.73
		c0,0.29-0.1,0.54-0.3,0.73c-0.2,0.2-0.44,0.29-0.73,0.29h-4.41c-0.28,0-0.54,0.11-0.79,0.33l-1.65,1.4
		c-0.27,0.23-0.4,0.53-0.4,0.92v2.5c0,0.27,0.11,0.5,0.32,0.68l1.81,1.54c0.23,0.2,0.53,0.31,0.9,0.31h4.2c0.28,0,0.52,0.1,0.72,0.3
		c0.2,0.2,0.31,0.44,0.31,0.73c0,0.29-0.1,0.53-0.3,0.73C142.13,36.07,141.89,36.17,141.6,36.17z"/>
	<path fill="#F09100" d="M150.43,28.77h4.02c0.22,0,0.54,0.05,0.95,0.15l-0.02-1.45c0-0.28-0.1-0.53-0.3-0.73
		c-0.2-0.2-0.44-0.3-0.73-0.3h-3.9c-0.28,0-0.52-0.1-0.72-0.3c-0.2-0.2-0.31-0.44-0.31-0.72c0-0.28,0.1-0.53,0.3-0.73
		c0.2-0.2,0.44-0.3,0.73-0.3h3.9c0.85,0,1.57,0.3,2.17,0.89c0.6,0.59,0.91,1.32,0.93,2.18l0.26,7.68c0,0.29-0.1,0.53-0.31,0.73
		c-0.2,0.2-0.44,0.3-0.72,0.3c-0.29,0-0.54-0.1-0.75-0.3c-0.2-0.2-0.3-0.44-0.3-0.73l-1.74,1.03h-3.47c-0.86,0-1.6-0.3-2.2-0.9
		c-0.6-0.6-0.9-1.33-0.9-2.2v-1.2c0-0.85,0.3-1.58,0.91-2.19S149.58,28.77,150.43,28.77z M155.56,32.76l-0.06-0.87
		c-0.01-0.29-0.11-0.54-0.31-0.73s-0.44-0.29-0.72-0.29h-4.04c-0.29,0-0.53,0.1-0.73,0.3s-0.3,0.44-0.3,0.73v1.15
		c0,0.28,0.1,0.52,0.31,0.72c0.2,0.2,0.44,0.31,0.72,0.31h2.9L155.56,32.76z"/>
	<path fill="#F09100" d="M170.73,25.82v-4.85c0-0.28,0.1-0.53,0.29-0.73c0.2-0.2,0.43-0.3,0.71-0.3c0.29,0,0.53,0.1,0.74,0.3
		c0.21,0.2,0.31,0.44,0.31,0.73v14.17c0,0.29-0.1,0.53-0.31,0.73c-0.2,0.2-0.44,0.3-0.72,0.3c-0.29,0-0.54-0.1-0.73-0.3
		c-0.2-0.2-0.29-0.44-0.29-0.73v-0.45c-1,0.99-1.94,1.48-2.81,1.48h-1.75c-0.7,0-1.4-0.3-2.1-0.9l-0.85-0.72
		c-0.2-0.19-0.38-0.5-0.56-0.94s-0.26-0.85-0.26-1.23V28.2c0-0.46,0.1-0.91,0.29-1.35c0.2-0.43,0.42-0.76,0.68-0.98l0.84-0.72
		c0.6-0.52,1.31-0.78,2.12-0.78h1.48c0.81,0,1.54,0.29,2.2,0.85L170.73,25.82z M167.75,26.44h-1.43c-0.3,0-0.57,0.11-0.82,0.33
		l-0.66,0.57c-0.23,0.2-0.34,0.46-0.34,0.78v4.35c0,0.29,0.13,0.54,0.4,0.77l0.67,0.57c0.21,0.19,0.44,0.28,0.67,0.28h1.67
		c0.22,0,0.48-0.13,0.78-0.38l1.62-1.34c0.27-0.24,0.4-0.53,0.4-0.88v-2.22c0-0.5-0.14-0.86-0.43-1.1l-1.67-1.43
		C168.41,26.54,168.12,26.44,167.75,26.44z"/>
	<path fill="#F09100" d="M187.9,28.09v4.33c0,0.92-0.43,1.77-1.3,2.55c-0.87,0.78-1.76,1.17-2.68,1.17h-2.41
		c-0.94,0-1.83-0.4-2.69-1.19c-0.85-0.79-1.28-1.64-1.28-2.53v-4.33c0-0.89,0.42-1.74,1.25-2.53c0.83-0.79,1.74-1.19,2.72-1.19h2.41
		c0.92-0.02,1.81,0.37,2.68,1.15C187.47,26.29,187.9,27.15,187.9,28.09z M179.63,28.17v4.15c0,0.37,0.13,0.67,0.4,0.89l0.77,0.66
		c0.17,0.15,0.41,0.22,0.72,0.22h2.38c0.35,0,0.67-0.13,0.95-0.38l0.62-0.55c0.25-0.2,0.38-0.47,0.38-0.82V28.2
		c0-0.41-0.13-0.71-0.38-0.9l-0.72-0.57c-0.24-0.2-0.53-0.3-0.86-0.3h-2.12c-0.46,0-0.82,0.11-1.07,0.33l-0.7,0.6
		C179.75,27.56,179.63,27.83,179.63,28.17z"/>
</g>
</svg>
